# xmcd
#
# Track frame offsets:
#	150
#	25959
#	38074
#	50370
#	59718
#	75527
#	93735
#	122643
#	145974
#	160812
#	184181
#	199234
#
# Disc length: 2927 seconds
#
# Revision: 1
# Processed by: cddbd v1.5.2PL0 Copyright (c) Steve Scherf et al.
# Submitted via: audiograbber 1.83.01
#
DISCID=a80b6d0c
DTITLE=Oscar Peterson - Oscar Peterson and Louis Armstrong - Kind Of Peterson CD-
DTITLE=7
DYEAR=1957
DGENRE=Jazz
TTITLE0=Oscar Peterson - How Long Has This Been Going On (Gershwin/Gershwin)
TTITLE1=Oscar Peterson - What's New (Haggart/Burke)
TTITLE2=Oscar Peterson - That Old Feeling (Fain/Brown)
TTITLE3=Oscar Peterson - There's No You (Hopper/Adair)
TTITLE4=Oscar Peterson - I'll Never Be The Same (Malneck/Kahn/Signorelli)
TTITLE5=Oscar Peterson - Just One Of Those Things (Porter)
TTITLE6=Oscar Peterson - You Go To My Head (Coots/Gillespie)
TTITLE7=Oscar Peterson - Blues In The Night (Arlen/Mercer)
TTITLE8=Oscar Peterson - Lets Fall In Love (Arlen/Koehler/Willmott)
TTITLE9=Oscar Peterson - Sweet Lorraine (Burwell/Parish)
TTITLE10=Oscar Peterson - I Was Doing All Right (Gershwin/Gershwin)
TTITLE11=Oscar Peterson - Moon Song (Johnston/Coslow)
EXTD=YEAR: 1957
EXTT0=
EXTT1=
EXTT2=
EXTT3=
EXTT4=
EXTT5=
EXTT6=
EXTT7=
EXTT8=
EXTT9=
EXTT10=
EXTT11=
PLAYORDER=
